<svg version="1.0" xmlns="http://www.w3.org/2000/svg"
 width="10163.000000pt" height="5650.000000pt" viewBox="0 0 10163.000000 5650.000000"
 preserveAspectRatio="xMidYMid meet">

<g transform="translate(0.000000,5650.000000) scale(0.100000,-0.100000)"
fill="#8e2121" stroke="#c8c3c3" stroke-width="900" stroke-linejoin="round" stroke-linecap="round">
<path d="M79600 49264 c-97 -28 -358 -154 -458 -221 -137 -92 -594 -332 -1732
-913 -635 -324 -1050 -538 -1240 -641 -150 -80 -216 -105 -256 -95 -38 10
-171 217 -469 731 -232 400 -282 479 -345 545 -49 52 -62 60 -114 70 -100 20
-153 1 -182 -66 -18 -42 -65 -383 -114 -824 -70 -630 -125 -1055 -146 -1122
-10 -34 -112 -114 -213 -168 -57 -30 -122 -71 -145 -91 -77 -67 -443 -267
-1356 -739 -333 -172 -866 -449 -1185 -615 -2389 -1245 -3856 -2002 -5780
-2985 -1049 -536 -1291 -665 -1425 -760 -31 -21 -224 -125 -430 -231 -1621
-829 -2362 -1212 -2650 -1367 -469 -253 -639 -374 -701 -498 -23 -47 -24 -57
-23 -244 0 -147 7 -252 27 -425 130 -1094 339 -2569 418 -2954 13 -64 30 -114
52 -150 82 -136 284 -251 442 -251 105 0 429 99 1155 352 283 99 709 246 945
328 527 181 801 282 880 325 106 58 432 176 2310 833 660 231 1445 507 1745
612 300 106 973 342 1495 525 1174 411 1543 544 1665 602 172 81 431 173 3150
1125 3641 1273 3933 1377 4003 1423 47 30 320 130 1262 460 319 112 715 251
880 310 165 59 743 262 1285 452 1362 477 1570 553 1762 649 87 44 126 80 175
164 70 119 104 322 69 415 -50 131 -287 442 -1241 1635 -341 426 -667 838
-725 915 -114 154 -458 584 -839 1050 -515 631 -643 788 -857 1055 -279 350
-380 480 -432 556 -140 208 -410 301 -662 228z"/>
<path d="M96953 47066 c-169 -39 -245 -102 -913 -761 -718 -708 -1854 -1789
-3540 -3370 -682 -640 -1241 -1170 -1645 -1561 -1013 -980 -1960 -1869 -2219
-2080 l-59 -49 -29 35 c-123 143 -249 299 -473 585 -334 425 -525 663 -561
697 -86 81 -239 81 -291 1 -14 -22 -19 -57 -23 -173 -6 -179 4 -670 25 -1185
8 -214 18 -588 21 -830 l6 -440 -233 -215 c-256 -236 -432 -403 -1263 -1200
-1160 -1109 -1462 -1395 -1631 -1544 -91 -81 -111 -93 -116 -78 -23 62 -41
367 -59 992 -33 1182 -42 1467 -55 1865 -43 1255 -85 1986 -131 2260 -18 106
-43 153 -118 222 -112 102 -245 156 -392 157 -83 1 -96 -2 -152 -31 -233 -120
-1612 -1182 -1970 -1517 -145 -135 -494 -419 -1797 -1461 -1062 -849 -1232
-988 -1565 -1271 -69 -58 -282 -233 -475 -387 -527 -424 -756 -618 -901 -762
-125 -124 -134 -135 -183 -237 l-52 -107 126 -633 c185 -925 383 -1885 760
-3683 147 -702 397 -1906 530 -2560 51 -253 170 -829 264 -1280 94 -451 296
-1430 450 -2175 154 -745 323 -1560 376 -1810 193 -914 219 -1038 370 -1790
435 -2163 754 -3652 849 -3963 84 -272 142 -353 297 -409 l64 -23 775 -3
c1100 -5 2575 9 11960 113 3426 38 3944 49 4144 90 37 8 87 25 110 39 69 41
166 152 230 266 l59 104 -122 771 c-237 1495 -533 3338 -781 4870 -138 853
-287 1775 -331 2050 -44 275 -257 1600 -474 2945 -217 1345 -453 2809 -524
3254 l-130 810 -93 94 c-123 124 -194 177 -276 203 -78 24 -420 67 -2977 378
-995 122 -1903 232 -2017 246 -203 25 -279 42 -285 61 -6 19 236 192 832 594
445 300 624 425 725 506 106 85 609 426 2000 1354 1380 921 1702 1140 1760
1194 98 92 508 368 713 481 l67 37 83 -27 c274 -90 1034 -391 1192 -471 242
-124 1098 -436 1233 -450 57 -6 114 23 150 76 67 99 16 194 -670 1245 -260
399 -408 636 -408 652 0 32 173 159 655 483 678 455 735 505 780 677 21 81 19
310 -5 528 -29 258 -61 489 -350 2525 -541 3808 -657 4576 -721 4793 -33 112
-143 209 -298 263 -87 30 -214 39 -298 20z m-7700 -18675 c97 -25 148 -52 210
-109 66 -62 116 -141 162 -254 32 -81 37 -101 32 -153 -13 -176 -184 -436
-1538 -2340 -884 -1242 -1295 -1827 -1471 -2095 -121 -184 -477 -685 -763
-1075 -415 -566 -524 -688 -662 -737 -74 -26 -203 -34 -285 -19 -165 32 -322
148 -392 291 -35 72 -37 81 -46 230 -34 544 -77 3745 -60 4390 13 465 32 575
114 667 58 64 113 93 274 142 696 213 3331 889 4077 1046 187 39 244 42 348
16z"/>
<path d="M44855 43608 c-22 -6 -159 -42 -305 -80 -436 -114 -934 -251 -3120
-858 -1147 -318 -2485 -690 -2975 -825 -1262 -349 -1462 -407 -1626 -471 -137
-53 -384 -124 -1604 -459 -632 -174 -1622 -447 -2200 -606 -577 -160 -1588
-439 -2245 -620 -1204 -333 -1542 -422 -1724 -454 l-99 -18 -23 29 c-47 58
-184 311 -412 759 -390 766 -434 837 -541 865 -121 32 -176 -32 -235 -270 -48
-197 -188 -1012 -266 -1545 -22 -154 -43 -289 -45 -301 -6 -25 -33 -33 -2075
-599 -2139 -593 -2536 -707 -2690 -777 -48 -21 -86 -50 -147 -111 -110 -108
-118 -132 -110 -316 14 -312 93 -689 817 -3901 476 -2109 625 -2789 636 -2899
l6 -57 -58 -26 c-91 -41 -270 -92 -624 -179 -857 -211 -982 -243 -1094 -279
-135 -44 -176 -66 -203 -107 -25 -38 -23 -133 4 -194 18 -39 29 -50 74 -71 78
-36 391 -162 899 -364 245 -97 519 -211 610 -254 91 -43 253 -113 360 -155
202 -80 415 -182 443 -213 25 -28 91 -301 361 -1512 74 -333 205 -915 291
-1295 339 -1495 423 -1895 432 -2046 5 -71 2 -100 -16 -160 -31 -100 -83 -192
-150 -260 -65 -66 -78 -71 -427 -163 -316 -83 -4695 -1138 -6649 -1602 -713
-169 -895 -216 -979 -249 -89 -35 -263 -83 -686 -189 -494 -124 -935 -229
-1091 -261 -176 -35 -289 -34 -385 4 -85 33 -165 85 -220 143 -23 24 -152 189
-286 368 -135 179 -387 512 -561 740 -389 509 -1250 1655 -1369 1823 -48 67
-171 230 -273 362 -226 293 -729 959 -812 1075 -33 47 -70 105 -82 129 -31 60
-53 173 -46 230 19 136 61 225 230 481 67 102 131 203 143 225 28 55 223 337
653 945 418 589 842 1198 1144 1640 218 320 423 614 865 1245 512 731 579 845
588 1010 4 70 1 89 -24 155 -34 89 -63 120 -300 322 -320 274 -671 555 -1799
1440 -572 449 -968 767 -1080 865 -173 153 -391 324 -1715 1343 -1127 868
-1320 1020 -1605 1270 -146 128 -272 202 -405 236 -76 20 -263 23 -325 6 -146
-41 -243 -182 -433 -627 -157 -370 -710 -1795 -1157 -2985 -150 -399 -549
-1434 -1050 -2725 -235 -605 -506 -1307 -602 -1560 -275 -723 -507 -1326 -681
-1765 -196 -495 -276 -704 -337 -880 -51 -146 -312 -827 -670 -1750 -449
-1155 -525 -1377 -525 -1520 0 -65 22 -118 84 -204 61 -84 449 -466 816 -802
364 -333 703 -651 971 -910 172 -167 741 -703 1081 -1019 65 -60 118 -113 118
-118 0 -4 -275 -317 -612 -695 -844 -948 -1025 -1160 -1061 -1241 -33 -74 -12
-144 57 -195 71 -53 271 -15 2231 423 319 71 668 148 775 169 185 38 196 39
223 24 71 -42 570 -474 1012 -877 451 -411 3326 -3045 3640 -3335 411 -379
633 -588 820 -770 174 -169 381 -361 995 -920 1003 -914 1147 -1046 1420
-1300 156 -146 363 -342 460 -435 395 -384 583 -524 765 -570 82 -21 125 -19
208 9 216 73 1396 649 1537 751 101 72 823 446 2590 1340 1413 715 2182 1108
2675 1370 389 206 925 480 2150 1098 1586 799 2363 1197 2620 1342 282 159
966 509 2610 1337 2696 1358 2915 1475 3066 1634 104 111 125 175 116 364 -8
156 -35 339 -187 1255 -114 689 -119 731 -103 743 45 32 395 200 1338 642 456
213 623 304 678 369 21 26 27 43 27 82 0 54 -18 106 -43 127 -42 35 -555 143
-1622 342 -297 56 -571 109 -609 118 -63 15 -70 20 -78 47 -22 85 -171 935
-369 2110 -193 1144 -314 1855 -444 2590 -372 2107 -686 4079 -685 4297 1 77
74 202 174 296 104 98 243 147 805 282 784 189 1356 329 1986 485 732 181
1308 321 1940 470 423 100 774 194 823 219 63 32 643 180 1597 406 237 56
1103 263 1925 460 2842 682 2764 662 2936 746 156 76 243 172 278 309 41 159
351 1659 752 3635 234 1155 427 2097 550 2685 215 1028 227 1096 206 1222 -31
185 -163 328 -387 418 -79 31 -183 41 -250 23z"/>
<path d="M56860 40820 c-58 -5 -550 -59 -1095 -119 -1201 -134 -3134 -346
-5485 -601 -965 -105 -1836 -199 -1935 -210 -315 -35 -497 -95 -605 -200 -130
-126 -143 -217 -290 -1925 -114 -1333 -130 -1552 -137 -1815 -6 -254 1 -325
40 -397 25 -48 177 -182 242 -213 127 -61 361 -83 1325 -125 1448 -63 5491
-252 7285 -340 1254 -61 1385 -59 1525 22 63 37 184 161 213 219 45 91 51 138
44 394 -8 310 -34 732 -112 1795 -35 484 -85 1177 -110 1540 -24 363 -54 779
-65 925 -37 471 -75 701 -135 820 -51 100 -158 182 -281 215 -73 20 -281 27
-424 15z"/>
<path d="M68640 37581 c-197 -111 -395 -226 -740 -430 -151 -90 -446 -263
-655 -384 -403 -234 -674 -399 -765 -466 -154 -114 -332 -223 -915 -561 -1528
-887 -2947 -1743 -3027 -1827 -93 -98 -145 -380 -96 -525 57 -169 627 -851
2643 -3163 698 -800 1005 -1156 1196 -1386 85 -102 227 -273 315 -380 147
-177 357 -420 975 -1134 288 -333 444 -519 485 -580 18 -27 40 -77 49 -110 30
-116 14 -299 -36 -414 -26 -61 -94 -128 -374 -366 -580 -493 -2372 -1923
-2635 -2102 -130 -88 -245 -127 -380 -126 -111 0 -187 22 -291 83 -106 63
-155 132 -270 381 -126 274 -1501 3488 -1879 4394 -273 653 -1040 2434 -1362
3165 -286 648 -416 815 -649 828 -42 2 -107 -1 -143 -7 -154 -27 -169 -32
-2506 -836 -1535 -528 -3181 -1091 -3595 -1230 -374 -126 -500 -189 -611 -307
-106 -112 -143 -247 -115 -419 23 -136 31 -151 310 -534 202 -278 940 -1261
1351 -1800 189 -247 431 -565 538 -705 429 -562 735 -993 811 -1141 82 -160
80 -251 -9 -434 -94 -196 -126 -214 -1070 -625 -1142 -496 -1846 -811 -2040
-912 -106 -54 -122 -60 -195 -65 -135 -9 -244 29 -382 134 -156 118 -186 187
-413 948 -126 423 -436 1458 -839 2795 -126 421 -289 965 -361 1210 -257 874
-749 2491 -810 2665 -100 286 -215 417 -402 460 -108 24 -699 69 -2703 205
-1948 132 -3880 265 -4530 311 -639 45 -971 58 -1082 40 -185 -29 -262 -93
-404 -331 -524 -881 -1679 -2897 -1858 -3243 -40 -76 -213 -385 -385 -685
-172 -301 -419 -731 -548 -957 -277 -484 -450 -793 -540 -965 -75 -142 -270
-489 -533 -945 -269 -467 -350 -644 -362 -786 -10 -115 20 -187 192 -474 56
-93 130 -222 165 -285 84 -152 240 -412 605 -1005 166 -269 529 -859 807
-1310 277 -451 661 -1076 852 -1390 618 -1011 968 -1569 1104 -1759 68 -94
142 -157 220 -186 51 -20 71 -22 187 -17 254 9 474 68 2075 552 3147 952 3632
1087 3961 1102 172 8 205 -3 315 -109 85 -81 134 -159 168 -263 43 -134 82
-487 73 -659 -10 -191 -52 -301 -149 -391 -67 -62 -133 -90 -478 -203 -305
-100 -521 -164 -1320 -392 -388 -111 -1387 -399 -2220 -640 -833 -241 -1930
-558 -2437 -704 -978 -282 -970 -280 -993 -301 -31 -28 -172 -71 -1075 -330
-506 -145 -1417 -407 -2025 -583 -608 -176 -1584 -458 -2170 -627 -2050 -590
-2318 -668 -2730 -791 -398 -119 -614 -190 -765 -249 -38 -15 -401 -121 -805
-237 -1325 -378 -2092 -608 -2199 -661 -81 -39 -176 -132 -219 -214 -39 -74
-72 -197 -72 -267 1 -143 62 -289 161 -380 75 -70 211 -138 579 -289 483 -199
846 -358 1075 -472 127 -63 291 -140 365 -173 207 -91 1298 -557 2040 -872
1617 -685 2082 -885 2394 -1025 l128 -58 -5 -53 c-7 -65 -81 -253 -312 -794
-306 -716 -395 -948 -398 -1042 -2 -41 2 -51 33 -83 51 -53 94 -62 187 -41
117 28 282 118 938 513 925 556 1218 723 1267 723 38 0 501 -184 968 -385 388
-167 777 -316 928 -355 75 -20 82 -20 148 -4 528 122 3332 945 3609 1059 97
40 334 117 670 219 976 294 4693 1401 5411 1610 332 97 469 167 551 283 89
126 212 500 1653 5033 418 1315 531 1652 602 1795 41 82 112 146 222 200 102
51 186 70 261 61 131 -17 392 -119 1500 -586 407 -172 981 -413 1275 -536 660
-277 821 -347 885 -384 142 -83 714 -335 936 -412 115 -39 132 -42 230 -43
104 0 107 1 190 42 46 23 122 72 168 109 46 37 296 275 555 528 639 626 766
749 1091 1057 585 556 814 761 881 790 98 44 286 43 421 -2 81 -27 177 -90
215 -143 85 -117 128 -249 253 -781 105 -446 159 -543 369 -659 107 -60 137
-64 526 -76 777 -22 2050 -48 5155 -105 1051 -20 2068 -39 2260 -43 420 -9
688 -1 766 21 85 25 322 194 669 477 309 252 515 416 619 495 120 90 238 165
261 165 8 0 197 -70 420 -156 1393 -536 2103 -797 2272 -834 71 -16 126 -3
158 38 18 22 21 37 18 85 -4 47 -17 83 -71 190 -90 177 -190 335 -778 1230
-276 419 -503 767 -506 773 -2 5 17 25 43 44 97 69 1044 868 1939 1636 544
466 611 525 822 718 59 55 216 193 348 306 356 308 466 430 495 551 18 74 7
198 -25 294 -60 175 -611 1432 -1155 2635 -133 294 -301 668 -372 830 -351
794 -717 1618 -1136 2555 -253 567 -738 1651 -1077 2410 -596 1333 -724 1621
-1004 2255 -126 286 -129 296 -112 315 10 11 182 204 382 429 200 225 499 561
663 745 415 465 547 625 601 727 56 105 13 213 -97 245 -20 5 -73 0 -166 -16
-279 -49 -960 -194 -1552 -330 -270 -62 -487 -105 -529 -105 -71 0 -138 125
-471 885 -411 937 -839 1865 -872 1893 -10 8 -53 -12 -168 -77z"/>
</g>
</svg>